<svg width="78" height="94" viewBox="0 0 78 94" fill="none" xmlns="http://www.w3.org/2000/svg">
<path fill-rule="evenodd" clip-rule="evenodd" d="M30.0526 7.0728H48.6937C49.6474 7.06821 50.4214 6.29712 50.4214 5.34698V1.72111C50.4214 0.771034 49.6474 0.00458242 48.6937 0H30.0526C29.0989 0.00458947 28.3295 0.771081 28.3249 1.72111V5.34698C28.3295 6.29706 29.0989 7.0681 30.0526 7.0728ZM37.6591 52.1486C39.3223 51.3086 41.3494 51.7998 42.446 53.3052C43.5379 54.8106 43.372 56.8807 42.0544 58.1934C40.7367 59.506 38.6543 59.6712 37.1476 58.5835C35.6365 57.4957 35.1435 55.4717 35.9866 53.8147L25.0767 42.9461C24.616 42.4826 24.616 41.7391 25.0767 41.2754C25.5421 40.8165 26.2884 40.8165 26.7538 41.2754L37.6683 52.1486L37.6591 52.1486ZM39.3729 54.1039C38.6957 54.1039 38.1106 54.5812 37.9769 55.2467C37.8433 55.9122 38.2027 56.5777 38.8293 56.8348C39.4605 57.0918 40.1838 56.8761 40.5616 56.3116C40.9395 55.747 40.8657 54.9989 40.382 54.517C40.1148 54.2508 39.7507 54.0993 39.3729 54.1039ZM14.9596 31.2058C7.37147 38.7652 3.74562 49.4133 5.14621 60.0117C6.5468 70.61 12.8126 79.9593 22.1102 85.3055C31.4029 90.6526 42.6632 91.3869 52.5777 87.2974C62.4923 83.2033 69.9379 74.7533 72.7155 64.4264C75.4937 54.0994 73.2914 43.07 66.7584 34.5878C60.2253 26.1058 50.1081 21.1307 39.3728 21.1307C30.2137 21.117 21.4276 24.7434 14.9596 31.2058ZM38.1841 23.5134C30.4761 23.7887 23.1272 26.818 17.4883 32.0549L20.4277 34.9832H20.4231C20.8884 35.4421 20.8884 36.1902 20.4231 36.6493C19.9624 37.1129 19.2115 37.1129 18.7507 36.6493L15.8158 33.721C10.559 39.3435 7.51359 46.6646 7.24184 54.3431H11.3975C12.0517 54.3431 12.5816 54.8709 12.5816 55.5226C12.5816 56.1744 12.0517 56.7022 11.3975 56.7022H7.24184C7.51367 64.3809 10.559 71.702 15.8158 77.3243L18.7552 74.396C19.216 73.937 19.9669 73.937 20.4277 74.396C20.8884 74.855 20.8884 75.6031 20.4277 76.0621L17.4883 78.9904C23.1322 84.2273 30.4811 87.2612 38.1888 87.5365V83.3966C38.1888 82.7448 38.7186 82.2125 39.3728 82.2125C40.027 82.2125 40.5569 82.7449 40.5569 83.3966V87.5365C48.2648 87.2657 55.6137 84.2319 61.2573 78.995L58.3179 76.0667C57.8572 75.6077 57.8572 74.8597 58.3179 74.4006C58.7786 73.937 59.5296 73.937 59.995 74.4006L62.9344 77.3289H62.9298C68.1866 71.7064 71.232 64.3853 71.5038 56.7068H67.3481C66.6939 56.7068 66.164 56.179 66.164 55.5272C66.164 54.8755 66.6939 54.3477 67.3481 54.3477H71.5038C71.2319 46.6689 68.1866 39.3432 62.9298 33.7209L59.9904 36.6492C59.525 37.1127 58.7787 37.1127 58.3133 36.6492C57.8526 36.1902 57.8526 35.4421 58.3133 34.983L61.2527 32.0548C55.6088 26.8179 48.2599 23.784 40.5522 23.5132V27.6532C40.5522 28.3049 40.0224 28.8327 39.3682 28.8327C38.714 28.8327 38.1842 28.3049 38.1842 27.6532L38.1841 23.5134ZM34.1343 15.0177C37.6081 14.577 41.1281 14.577 44.6065 15.0177V9.43192H34.1389V15.0222L34.1343 15.0177ZM11.0112 26.0423C10.7993 26.2442 10.5966 26.4416 10.3893 26.6481C8.1041 28.9292 6.09078 31.4674 4.40453 34.2121L0 29.8242L7.40374 22.4485L11.0158 26.0423L11.0112 26.0423ZM39.3734 17.051C27.3666 17.051 16.0428 22.6138 8.73137 32.1013C1.42435 41.5929 -1.04058 53.9301 2.06939 65.4825C5.17924 77.0395 13.5045 86.4947 24.5945 91.07C35.6886 95.6506 48.2895 94.8245 58.6875 88.844C69.086 82.8636 76.0985 72.4037 77.6696 60.5435C79.236 48.6832 75.177 36.7736 66.686 28.3184C59.4481 21.0896 49.6206 17.0367 39.3747 17.0506L39.3734 17.051Z" fill="white"/>
</svg>
