<svg width="212" height="212" viewBox="0 0 212 212" fill="none" xmlns="http://www.w3.org/2000/svg">
<g clip-path="url(#clip0_62_578)">
<path d="M160.405 31.8764C149.53 31.8764 140.687 40.7195 140.687 51.5945C140.687 62.4696 149.53 71.3126 160.405 71.3126C171.28 71.3126 180.124 62.4696 180.124 51.5945C180.124 40.7195 171.28 31.8764 160.405 31.8764Z" fill="white"/>
<path d="M182.359 0.635986H112.773V99.2266H211.364V29.6412C211.364 13.6259 198.374 0.635986 182.359 0.635986ZM160.405 85.311C141.816 85.311 126.689 70.1838 126.689 51.5945C126.689 33.0053 141.816 17.8781 160.405 17.8781C178.995 17.8781 194.122 33.0053 194.122 51.5945C194.114 70.1838 178.987 85.311 160.405 85.311Z" fill="#10A4B0"/>
<path d="M51.5946 180.124C62.4846 180.124 71.3127 171.295 71.3127 160.405C71.3127 149.515 62.4846 140.687 51.5946 140.687C40.7046 140.687 31.8765 149.515 31.8765 160.405C31.8765 171.295 40.7046 180.124 51.5946 180.124Z" fill="white"/>
<path d="M0.635986 112.773V182.351C0.635986 198.374 13.6259 211.364 29.6412 211.364H99.2266V112.773H0.635986ZM51.5945 194.114C33.0053 194.114 17.8781 178.987 17.8781 160.398C17.8781 141.809 33.0053 126.681 51.5945 126.681C70.1838 126.681 85.311 141.809 85.311 160.398C85.311 178.987 70.1838 194.114 51.5945 194.114Z" fill="#FF8C00"/>
<path d="M112.773 112.773V211.364H182.351C198.374 211.364 211.364 198.374 211.364 182.359V112.773H112.773ZM184.24 174.344C186.972 177.076 186.972 181.508 184.24 184.24C182.871 185.61 181.087 186.287 179.288 186.287C177.497 186.287 175.706 185.602 174.344 184.24L160.398 170.295L146.452 184.24C145.083 185.61 143.291 186.287 141.5 186.287C139.709 186.287 137.918 185.602 136.548 184.24C133.816 181.508 133.816 177.076 136.548 174.344L150.494 160.398L136.548 146.452C133.816 143.72 133.816 139.287 136.548 136.556C139.28 133.824 143.713 133.824 146.445 136.556L160.39 150.501L174.336 136.556C177.068 133.824 181.501 133.824 184.233 136.556C186.965 139.287 186.965 143.72 184.233 146.452L170.287 160.398L184.24 174.344Z" fill="white"/>
<path d="M29.6412 0.635986C13.6259 0.635986 0.635986 13.6259 0.635986 29.6412V99.2266H99.2266V0.635986H29.6412ZM75.4369 65.5402C78.1688 68.2721 78.1688 72.705 75.4369 75.4369C74.0672 76.8066 72.276 77.484 70.4848 77.484C68.6936 77.484 66.9024 76.7991 65.5327 75.4369L51.587 61.4912L37.6413 75.4369C36.2716 76.8066 34.4879 77.484 32.6968 77.484C30.9056 77.484 29.1144 76.7991 27.7446 75.4369C25.0127 72.705 25.0127 68.2721 27.7446 65.5402L41.6903 51.5945L27.7597 37.6564C25.0278 34.9244 25.0278 30.4916 27.7597 27.7597C30.4916 25.0278 34.9244 25.0278 37.6564 27.7597L51.6021 41.7054L65.5477 27.7597C68.2797 25.0278 72.7125 25.0278 75.4444 27.7597C78.1764 30.4916 78.1764 34.9244 75.4444 37.6564L61.4988 51.6021L75.4369 65.5402Z" fill="white"/>
</g>
<defs>
<clipPath id="clip0_62_578">
<rect width="212" height="212" fill="white"/>
</clipPath>
</defs>
</svg>
