<svg width="129" height="128" viewBox="0 0 129 128" fill="none" xmlns="http://www.w3.org/2000/svg">
<g clip-path="url(#clip0_26_277)">
<path d="M97.7904 98.6229C98.3422 98.6229 98.8714 98.4018 99.2616 98.0083C99.6518 97.6148 99.871 97.081 99.871 96.5245V94.4261H89.4678V96.5245C89.4678 97.081 89.687 97.6148 90.0772 98.0083C90.4674 98.4018 90.9966 98.6229 91.5484 98.6229H97.7904Z" fill="white"/>
<path d="M106.115 119.607C107.264 119.607 108.195 118.667 108.195 117.508C108.195 116.349 107.264 115.41 106.115 115.41C104.966 115.41 104.034 116.349 104.034 117.508C104.034 118.667 104.966 119.607 106.115 119.607Z" fill="white"/>
<path d="M83.2263 115.41C82.887 115.406 82.552 115.487 82.2512 115.645C81.9504 115.803 81.6931 116.034 81.5021 116.317C81.3112 116.6 81.1926 116.926 81.1569 117.267C81.1212 117.607 81.1695 117.951 81.2975 118.268C81.2975 118.287 81.2975 118.312 81.3162 118.333C81.464 118.681 81.7026 118.983 82.0068 119.206C82.311 119.429 82.6693 119.564 83.0437 119.598C83.4182 119.632 83.7947 119.563 84.1333 119.398C84.4719 119.234 84.7599 118.979 84.9668 118.663C85.1737 118.346 85.2916 117.979 85.3081 117.6C85.3246 117.222 85.2391 116.845 85.0606 116.512C84.882 116.178 84.6172 115.899 84.2942 115.705C83.9713 115.511 83.6022 115.409 83.2263 115.41Z" fill="white"/>
<path d="M117.682 96.7973C117.521 96.1306 117.146 95.5364 116.616 95.1074C116.085 94.6784 115.428 94.4388 114.748 94.4261H104.033V96.5245C104.028 98.1925 103.368 99.7908 102.199 100.97C101.029 102.15 99.4446 102.815 97.7907 102.82H91.5487C89.8933 102.82 88.3056 102.156 87.135 100.976C85.9644 99.7952 85.3068 98.1941 85.3068 96.5245V94.4261H74.5915C74.176 94.4322 73.7665 94.527 73.3899 94.7042C73.0133 94.8814 72.6783 95.1371 72.4068 95.4543C72.3236 95.5593 72.2403 95.6432 72.1571 95.7481C72.0586 95.8589 71.9811 95.9869 71.9282 96.1258C71.8658 96.2307 71.8242 96.3357 71.7826 96.4196L71.6578 96.7973L66.7266 117.004C66.4036 118.363 66.6015 119.795 67.2805 121.013C67.9595 122.231 69.0696 123.145 70.3886 123.572C70.8809 123.724 71.3927 123.802 71.9074 123.803C72.4444 123.803 72.978 123.718 73.4887 123.551C73.9865 123.386 74.4565 123.145 74.8828 122.838C75.7765 122.195 76.4579 121.296 76.8386 120.257L77.2339 119.208C77.2339 119.187 77.2131 119.166 77.2131 119.145C77.073 118.61 76.9961 118.061 76.9842 117.508C76.9783 116.025 77.4938 114.587 78.4392 113.451C79.3846 112.315 80.6988 111.553 82.1483 111.302C83.5978 111.05 85.0888 111.325 86.3565 112.077C87.6243 112.829 88.5866 114.01 89.0728 115.41H100.267C100.753 114.01 101.715 112.829 102.983 112.077C104.251 111.325 105.742 111.05 107.191 111.302C108.641 111.553 109.955 112.315 110.9 113.451C111.846 114.587 112.361 116.025 112.355 117.508C112.35 118.085 112.259 118.658 112.085 119.208L112.501 120.257C112.938 121.546 113.856 122.613 115.06 123.232C116.264 123.851 117.659 123.973 118.951 123.572C120.27 123.145 121.38 122.231 122.059 121.013C122.738 119.795 122.936 118.363 122.613 117.004L117.682 96.7973ZM81.1455 104.918C81.1455 105.474 80.9263 106.008 80.5361 106.402C80.1459 106.795 79.6167 107.016 79.0649 107.016C78.513 107.016 77.9838 106.795 77.5936 106.402C77.2034 106.008 76.9842 105.474 76.9842 104.918C76.4324 104.918 75.9032 104.697 75.513 104.303C75.1228 103.91 74.9036 103.376 74.9036 102.82C74.9036 102.263 75.1228 101.729 75.513 101.336C75.9032 100.942 76.4324 100.721 76.9842 100.721C76.9842 100.165 77.2034 99.631 77.5936 99.2375C77.9838 98.8439 78.513 98.6229 79.0649 98.6229C79.6167 98.6229 80.1459 98.8439 80.5361 99.2375C80.9263 99.631 81.1455 100.165 81.1455 100.721C81.6973 100.721 82.2265 100.942 82.6167 101.336C83.0069 101.729 83.2261 102.263 83.2261 102.82C83.2261 103.376 83.0069 103.91 82.6167 104.303C82.2265 104.697 81.6973 104.918 81.1455 104.918ZM95.71 113.311H93.6294C93.0775 113.311 92.5483 113.09 92.1581 112.697C91.7679 112.303 91.5487 111.77 91.5487 111.213C91.5487 110.656 91.7679 110.123 92.1581 109.729C92.5483 109.336 93.0775 109.115 93.6294 109.115H95.71C96.2618 109.115 96.7911 109.336 97.1812 109.729C97.5714 110.123 97.7907 110.656 97.7907 111.213C97.7907 111.77 97.5714 112.303 97.1812 112.697C96.7911 113.09 96.2618 113.311 95.71 113.311ZM108.194 107.016H106.113C105.561 107.016 105.032 106.795 104.642 106.402C104.252 106.008 104.033 105.474 104.033 104.918C104.033 104.361 104.252 103.828 104.642 103.434C105.032 103.041 105.561 102.82 106.113 102.82H108.194C108.746 102.82 109.275 103.041 109.665 103.434C110.055 103.828 110.275 104.361 110.275 104.918C110.275 105.474 110.055 106.008 109.665 106.402C109.275 106.795 108.746 107.016 108.194 107.016ZM114.436 102.82H112.355C111.803 102.82 111.274 102.599 110.884 102.205C110.494 101.811 110.275 101.278 110.275 100.721C110.275 100.165 110.494 99.631 110.884 99.2375C111.274 98.8439 111.803 98.6229 112.355 98.6229H114.436C114.988 98.6229 115.517 98.8439 115.907 99.2375C116.297 99.631 116.516 100.165 116.516 100.721C116.516 101.278 116.297 101.811 115.907 102.205C115.517 102.599 114.988 102.82 114.436 102.82Z" fill="white"/>
<path d="M37.4515 10.4918C38.0033 10.4918 38.5325 10.2707 38.9227 9.87717C39.3129 9.48365 39.5321 8.94992 39.5321 8.3934V6.29504H29.1289V8.3934C29.1289 8.94992 29.3481 9.48365 29.7383 9.87717C30.1285 10.2707 30.6577 10.4918 31.2096 10.4918H37.4515Z" fill="white"/>
<path d="M45.7721 31.4754C46.9212 31.4754 47.8527 30.5359 47.8527 29.377C47.8527 28.2182 46.9212 27.2787 45.7721 27.2787C44.6229 27.2787 43.6914 28.2182 43.6914 29.377C43.6914 30.5359 44.6229 31.4754 45.7721 31.4754Z" fill="white"/>
<path d="M22.8874 27.2787C22.5481 27.2749 22.2131 27.3557 21.9123 27.514C21.6115 27.6724 21.3542 27.9033 21.1633 28.1862C20.9724 28.4691 20.8538 28.7952 20.8181 29.1355C20.7824 29.4758 20.8307 29.8197 20.9587 30.1367C20.9587 30.1555 20.9587 30.1807 20.9774 30.2017C21.1251 30.5503 21.3638 30.8521 21.6679 31.0749C21.9721 31.2977 22.3304 31.4332 22.7049 31.467C23.0793 31.5009 23.4558 31.4318 23.7944 31.2671C24.133 31.1024 24.4211 30.8483 24.6279 30.5317C24.8348 30.2151 24.9527 29.848 24.9692 29.4692C24.9858 29.0904 24.9002 28.7142 24.7217 28.3806C24.5432 28.0469 24.2783 27.7683 23.9554 27.5743C23.6324 27.3803 23.2633 27.2781 22.8874 27.2787Z" fill="white"/>
<path d="M57.3389 8.66619C57.1785 7.99954 56.8036 7.40526 56.2728 6.97626C55.742 6.54726 55.0852 6.3077 54.4051 6.29504H43.694V8.3934C43.689 10.0614 43.0298 11.6597 41.8603 12.8392C40.6908 14.0187 39.106 14.6835 37.452 14.6885H31.2101C29.5546 14.6885 27.967 14.0252 26.7964 12.8447C25.6258 11.6641 24.9682 10.063 24.9682 8.3934V6.29504H14.2487C13.8332 6.30111 13.4237 6.39587 13.0471 6.5731C12.6706 6.75032 12.3355 7.00598 12.064 7.32324C11.9808 7.42816 11.8976 7.51209 11.8143 7.61701C11.7159 7.7278 11.6383 7.8558 11.5855 7.99471C11.523 8.09963 11.4814 8.20455 11.4398 8.28848L11.315 8.66619L6.38385 28.8734C6.06087 30.2321 6.25869 31.6637 6.93772 32.8815C7.61674 34.0994 8.72685 35.0137 10.0458 35.4412C10.5382 35.5927 11.0499 35.6704 11.5647 35.6721C12.1016 35.6722 12.6352 35.5872 13.1459 35.4203C13.6437 35.2549 14.1138 35.0144 14.54 34.7068C15.4337 34.0637 16.1151 33.1644 16.4958 32.1258L16.8911 31.0767C16.8911 31.0557 16.8703 31.0347 16.8703 31.0137C16.7316 30.479 16.6562 29.9296 16.6456 29.377C16.6396 27.8937 17.1552 26.4562 18.1006 25.3199C19.046 24.1837 20.3602 23.4221 21.8097 23.1705C23.2592 22.9189 24.7502 23.1935 26.0179 23.9456C27.2856 24.6978 28.248 25.8787 28.7341 27.2786H39.928C40.4141 25.8787 41.3765 24.6978 42.6442 23.9456C43.9119 23.1935 45.403 22.9189 46.8525 23.1705C48.302 23.4221 49.6161 24.1837 50.5616 25.3199C51.507 26.4562 52.0225 27.8937 52.0166 29.377C52.0113 29.954 51.9201 30.527 51.7461 31.0767L52.1622 32.1258C52.5998 33.4151 53.5176 34.4821 54.7215 35.1009C55.9253 35.7196 57.3207 35.8417 58.6122 35.4412C59.9311 35.0137 61.0412 34.0994 61.7203 32.8815C62.3993 31.6637 62.5971 30.2321 62.2741 28.8734L57.3389 8.66619ZM20.8069 16.7868C20.8069 17.3434 20.5877 17.8771 20.1975 18.2706C19.8073 18.6641 19.2781 18.8852 18.7262 18.8852C18.1744 18.8852 17.6452 18.6641 17.255 18.2706C16.8648 17.8771 16.6456 17.3434 16.6456 16.7868C16.0938 16.7868 15.5646 16.5658 15.1744 16.1722C14.7842 15.7787 14.5649 15.245 14.5649 14.6885C14.5649 14.132 14.7842 13.5982 15.1744 13.2047C15.5646 12.8112 16.0938 12.5901 16.6456 12.5901C16.6456 12.0336 16.8648 11.4999 17.255 11.1064C17.6452 10.7128 18.1744 10.4918 18.7262 10.4918C19.2781 10.4918 19.8073 10.7128 20.1975 11.1064C20.5877 11.4999 20.8069 12.0336 20.8069 12.5901C21.3587 12.5901 21.8879 12.8112 22.2781 13.2047C22.6683 13.5982 22.8875 14.132 22.8875 14.6885C22.8875 15.245 22.6683 15.7787 22.2781 16.1722C21.8879 16.5658 21.3587 16.7868 20.8069 16.7868ZM35.3714 25.1803H33.2908C32.7389 25.1803 32.2097 24.9592 31.8195 24.5657C31.4293 24.1722 31.2101 23.6384 31.2101 23.0819C31.2101 22.5254 31.4293 21.9917 31.8195 21.5982C32.2097 21.2046 32.7389 20.9836 33.2908 20.9836H35.3714C35.9232 20.9836 36.4524 21.2046 36.8426 21.5982C37.2328 21.9917 37.452 22.5254 37.452 23.0819C37.452 23.6384 37.2328 24.1722 36.8426 24.5657C36.4524 24.9592 35.9232 25.1803 35.3714 25.1803ZM47.8553 18.8852H45.7746C45.2228 18.8852 44.6936 18.6641 44.3034 18.2706C43.9132 17.8771 43.694 17.3434 43.694 16.7868C43.694 16.2303 43.9132 15.6966 44.3034 15.3031C44.6936 14.9096 45.2228 14.6885 45.7746 14.6885H47.8553C48.4071 14.6885 48.9363 14.9096 49.3265 15.3031C49.7167 15.6966 49.9359 16.2303 49.9359 16.7868C49.9359 17.3434 49.7167 17.8771 49.3265 18.2706C48.9363 18.6641 48.4071 18.8852 47.8553 18.8852ZM54.0972 14.6885H52.0166C51.4647 14.6885 50.9355 14.4674 50.5453 14.0739C50.1551 13.6804 49.9359 13.1466 49.9359 12.5901C49.9359 12.0336 50.1551 11.4999 50.5453 11.1064C50.9355 10.7128 51.4647 10.4918 52.0166 10.4918H54.0972C54.649 10.4918 55.1782 10.7128 55.5684 11.1064C55.9586 11.4999 56.1778 12.0336 56.1778 12.5901C56.1778 13.1466 55.9586 13.6804 55.5684 14.0739C55.1782 14.4674 54.649 14.6885 54.0972 14.6885Z" fill="white"/>
<path d="M126.316 2.70687C125.923 2.31374 125.392 2.09314 124.838 2.09314C124.285 2.09314 123.754 2.31374 123.361 2.70687L82.0812 44.3383C76.9108 39.8646 70.2561 37.5247 63.4485 37.7867C56.6409 38.0488 50.1824 40.8935 45.3652 45.7517C40.548 50.6099 37.7273 57.1234 37.4675 63.9889C37.2076 70.8545 39.5278 77.5658 43.9637 82.7803L2.68375 124.412C2.29394 124.808 2.0752 125.343 2.0752 125.902C2.0752 126.46 2.29394 126.995 2.68375 127.391C3.07816 127.781 3.60857 128 4.16101 128C4.71345 128 5.24385 127.781 5.63827 127.391L46.9183 85.7599C52.0887 90.2337 58.7434 92.5736 65.5509 92.3115C72.3586 92.0494 78.817 89.2047 83.6342 84.3465C88.4514 79.4883 91.2721 72.9749 91.532 66.1093C91.7918 59.2437 89.4716 52.5324 85.0357 47.318L126.316 5.68654C126.705 5.29036 126.924 4.75485 126.924 4.19671C126.924 3.63857 126.705 3.10306 126.316 2.70687ZM64.3749 57.3901L61.5244 65.0701L58.1329 74.177C58.0169 74.4766 57.8396 74.7483 57.6128 74.9743C57.3609 75.2105 57.0553 75.3807 56.723 75.4698C56.3906 75.559 56.0416 75.5644 55.7067 75.4857C55.3718 75.4069 55.0611 75.2464 54.8021 75.0182C54.5431 74.79 54.3437 74.5011 54.2213 74.177L53.7428 72.918L47.9794 57.3901C47.7863 56.867 47.8071 56.2879 48.0373 55.7803C48.2675 55.2726 48.6883 54.878 49.207 54.6832C49.7257 54.4884 50.2999 54.5094 50.8032 54.7416C51.3066 54.9738 51.6979 55.3981 51.891 55.9213L56.1771 67.4622L60.4633 55.9213C60.6564 55.3981 61.0477 54.9738 61.551 54.7416C62.0544 54.5094 62.6286 54.4884 63.1473 54.6832C63.666 54.878 64.0868 55.2726 64.317 55.7803C64.5472 56.2879 64.568 56.867 64.3749 57.3901ZM74.9029 62.9508C76.5584 62.9508 78.1461 63.614 79.3167 64.7945C80.4872 65.9751 81.1449 67.5763 81.1449 69.2458C81.1449 70.9154 80.4872 72.5166 79.3167 73.6971C78.1461 74.8777 76.5584 75.5409 74.9029 75.5409H70.7417C70.1898 75.5409 69.6606 75.3198 69.2704 74.9263C68.8802 74.5328 68.661 73.9991 68.661 73.4426C68.661 72.886 68.8802 72.3523 69.2704 71.9588C69.6606 71.5653 70.1898 71.3442 70.7417 71.3442H74.9029C75.4548 71.3442 75.984 71.1231 76.3742 70.7296C76.7644 70.3361 76.9836 69.8024 76.9836 69.2458C76.9836 68.6893 76.7644 68.1556 76.3742 67.7621C75.984 67.3686 75.4548 67.1475 74.9029 67.1475C73.6801 67.1475 72.4845 66.7831 71.4664 66.0998C70.4484 65.4166 69.6533 64.4451 69.1812 63.3075C68.8399 62.5347 68.6627 61.6984 68.661 60.8524C68.6659 59.1844 69.3252 57.5861 70.4947 56.4066C71.6642 55.2271 73.249 54.5623 74.9029 54.5573H79.0642C79.6161 54.5573 80.1453 54.7784 80.5355 55.1719C80.9257 55.5654 81.1449 56.0992 81.1449 56.6557C81.1449 57.2122 80.9257 57.7459 80.5355 58.1394C80.1453 58.533 79.6161 58.754 79.0642 58.754H74.9029C74.3511 58.754 73.8219 58.9751 73.4317 59.3686C73.0415 59.7622 72.8223 60.2959 72.8223 60.8524C72.8223 61.4089 73.0415 61.9426 73.4317 62.3362C73.8219 62.7297 74.3511 62.9508 74.9029 62.9508Z" fill="white"/>
</g>
<defs>
<clipPath id="clip0_26_277">
<rect width="129" height="128" fill="white"/>
</clipPath>
</defs>
</svg>
