<svg width="89" height="68" viewBox="0 0 89 68" fill="none" xmlns="http://www.w3.org/2000/svg">
<g clip-path="url(#clip0_26_300)">
<path d="M33.3753 18.9768C33.374 19.5421 33.3416 20.107 33.2784 20.6688C35.9433 21.0301 38.3868 22.3389 40.1574 24.3533C41.928 26.3678 42.9061 28.9517 42.9111 31.6279V39.5349H46.0896V31.6279C46.0946 28.9517 47.0727 26.3678 48.8433 24.3533C50.6139 22.3389 53.0574 21.0301 55.7223 20.6688C55.6591 20.107 55.6267 19.5421 55.6253 18.9768C55.6243 14.8334 57.2636 10.8564 60.1882 7.90698H28.8125C31.7371 10.8564 33.3764 14.8334 33.3753 18.9768ZM49.2682 15.814H50.8575C51.279 15.814 51.6832 15.9806 51.9813 16.2771C52.2793 16.5737 52.4468 16.9759 52.4468 17.3954C52.4468 17.8148 52.2793 18.217 51.9813 18.5136C51.6832 18.8101 51.279 18.9768 50.8575 18.9768H49.2682C48.8467 18.9768 48.4424 18.8101 48.1444 18.5136C47.8464 18.217 47.6789 17.8148 47.6789 17.3954C47.6789 16.9759 47.8464 16.5737 48.1444 16.2771C48.4424 15.9806 48.8467 15.814 49.2682 15.814ZM38.1432 15.814H39.7325C40.154 15.814 40.5582 15.9806 40.8563 16.2771C41.1543 16.5737 41.3218 16.9759 41.3218 17.3954C41.3218 17.8148 41.1543 18.217 40.8563 18.5136C40.5582 18.8101 40.154 18.9768 39.7325 18.9768H38.1432C37.7217 18.9768 37.3174 18.8101 37.0194 18.5136C36.7214 18.217 36.5539 17.8148 36.5539 17.3954C36.5539 16.9759 36.7214 16.5737 37.0194 16.2771C37.3174 15.9806 37.7217 15.814 38.1432 15.814Z" fill="white"/>
<path d="M84.602 27.9307C82.845 30.4983 80.3616 32.4892 77.4664 33.6514C74.5713 34.8135 71.3946 35.0944 68.3389 34.4587V45.5869C68.9158 47.1873 72.3709 56.6741 75.2682 62.4399C75.9999 63.8919 77.2027 65.0557 78.6818 65.7429C80.1609 66.4301 81.8299 66.6005 83.4184 66.2266C85.007 65.8526 86.4223 64.9562 87.4351 63.6823C88.448 62.4085 88.9992 60.8318 88.9996 59.2075C88.9986 51.5026 88.1507 43.8209 86.471 36.2994L84.602 27.9307Z" fill="white"/>
<path d="M57.2143 33.2093C58.092 33.2093 58.8036 32.5013 58.8036 31.6279C58.8036 30.7545 58.092 30.0465 57.2143 30.0465C56.3365 30.0465 55.625 30.7545 55.625 31.6279C55.625 32.5013 56.3365 33.2093 57.2143 33.2093Z" fill="white"/>
<path d="M57.214 23.7209C55.6424 23.7209 54.106 24.1847 52.7992 25.0535C51.4924 25.9223 50.4739 27.1572 49.8725 28.6021C49.271 30.0469 49.1137 31.6367 49.4203 33.1705C49.7269 34.7043 50.4837 36.1132 51.595 37.219C52.7064 38.3248 54.1223 39.0779 55.6637 39.383C57.2052 39.6881 58.803 39.5315 60.255 38.933C61.707 38.3346 62.9481 37.3211 63.8212 36.0208C64.6944 34.7205 65.1604 33.1918 65.1604 31.6279C65.1579 29.5316 64.3199 27.5219 62.8302 26.0396C61.3405 24.5573 59.3208 23.7235 57.214 23.7209ZM57.214 36.3721C56.271 36.3721 55.3492 36.0939 54.5651 35.5726C53.7811 35.0513 53.17 34.3103 52.8091 33.4434C52.4482 32.5766 52.3538 31.6227 52.5378 30.7024C52.7217 29.7821 53.1758 28.9368 53.8426 28.2733C54.5094 27.6098 55.359 27.158 56.2838 26.9749C57.2087 26.7918 58.1674 26.8858 59.0386 27.2449C59.9098 27.6039 60.6544 28.212 61.1783 28.9922C61.7022 29.7724 61.9819 30.6896 61.9819 31.6279C61.9819 32.8862 61.4795 34.0929 60.5854 34.9826C59.6912 35.8723 58.4785 36.3721 57.214 36.3721Z" fill="white"/>
<path d="M31.7856 33.2093C32.6633 33.2093 33.3749 32.5013 33.3749 31.6279C33.3749 30.7545 32.6633 30.0465 31.7856 30.0465C30.9078 30.0465 30.1963 30.7545 30.1963 31.6279C30.1963 32.5013 30.9078 33.2093 31.7856 33.2093Z" fill="white"/>
<path d="M23.8389 45.3687C24.7429 46.5988 25.9467 47.5796 27.3369 48.219C28.7271 48.8584 30.2579 49.1351 31.7853 49.0233C33.892 49.0208 35.9118 48.1869 37.4015 46.7046C38.8912 45.2223 39.7292 43.2126 39.7317 41.1163V39.3594C38.6985 40.4158 37.4629 41.2555 36.0981 41.8288C34.7333 42.4022 33.2668 42.6976 31.7853 42.6976C30.3038 42.6976 28.8373 42.4022 27.4725 41.8288C26.1077 41.2555 24.8721 40.4158 23.8389 39.3594V45.3687Z" fill="white"/>
<path d="M22.2504 3.89181V3.16279C22.2504 2.32397 21.9155 1.5195 21.3194 0.926361C20.7233 0.333222 19.9149 0 19.0718 0H12.7147C11.8717 0 11.0632 0.333222 10.4671 0.926361C9.87102 1.5195 9.53613 2.32397 9.53613 3.16279V5.30242C11.4395 4.19837 13.5538 3.50255 15.7434 3.25963C17.933 3.0167 20.1494 3.23204 22.2504 3.89181Z" fill="white"/>
<path d="M2.52855 36.2994C0.848901 43.8209 0.00100844 51.5026 0 59.2075C0.00168335 61.1195 0.76576 62.9527 2.1245 64.3047C3.48324 65.6567 5.3256 66.417 7.24714 66.4187C8.58952 66.448 9.91212 66.093 11.0577 65.3961C12.2032 64.6992 13.1235 63.6896 13.7092 62.4873C15.4574 58.6477 19.9312 47.3976 20.6607 45.5664V34.4602C19.6153 34.678 18.5502 34.7887 17.4821 34.7908C14.9055 34.7894 12.3678 34.1641 10.0882 32.9689C7.80865 31.7738 5.85557 30.0446 4.39755 27.9307L2.52855 36.2994Z" fill="white"/>
<path d="M79.4184 5.27395V3.16279C79.4184 2.32397 79.0835 1.5195 78.4874 0.92636C77.8913 0.333222 77.0828 0 76.2398 0H69.8827C69.0397 0 68.2312 0.333222 67.6351 0.92636C67.039 1.5195 66.7041 2.32397 66.7041 3.16279V3.90921C68.8018 3.24171 71.0167 3.0183 73.2063 3.25334C75.396 3.48838 77.512 4.17666 79.4184 5.27395Z" fill="white"/>
<path d="M8.10508 10.4577L8.00336 10.57C7.73795 10.8657 7.48844 11.1741 7.25163 11.492L7.18011 11.5869C6.93695 11.9221 6.70333 12.27 6.4999 12.6258L6.47129 12.6733C5.59109 14.1875 5.03638 15.8671 4.84227 17.6056V17.6483C4.79345 18.0895 4.76852 18.5329 4.76758 18.9767C4.77242 19.5429 4.81489 20.1082 4.89472 20.6688C4.91538 20.8159 4.93763 20.9629 4.96306 21.1084C5.04965 21.643 5.17177 22.1713 5.3286 22.6898C6.13007 25.2754 7.74218 27.5379 9.929 29.1462C12.1158 30.7545 14.7626 31.6242 17.4819 31.6279C18.5616 31.6311 19.6371 31.4939 20.6811 31.2199C20.7786 28.6579 21.7667 26.2091 23.4769 24.2914C25.187 22.3738 27.513 21.1062 30.0579 20.7052C30.1443 20.1329 30.1905 19.5554 30.1961 18.9767C30.2005 16.5264 29.4883 14.1277 28.1465 12.0731C26.8046 10.0185 24.8911 8.39665 22.639 7.4053C20.387 6.41395 17.8938 6.0959 15.4633 6.48991C13.0327 6.88392 10.7699 7.97298 8.95058 9.62434C8.65497 9.89002 8.37526 10.1683 8.10508 10.4577ZM12.714 17.3953H15.8926V14.2325C15.8926 13.8131 16.06 13.4109 16.3581 13.1143C16.6561 12.8177 17.0604 12.6511 17.4819 12.6511C17.9034 12.6511 18.3076 12.8177 18.6057 13.1143C18.9037 13.4109 19.0711 13.8131 19.0711 14.2325V17.3953H22.2497C22.6712 17.3953 23.0755 17.5619 23.3735 17.8585C23.6716 18.1551 23.839 18.5573 23.839 18.9767C23.839 19.3961 23.6716 19.7984 23.3735 20.0949C23.0755 20.3915 22.6712 20.5581 22.2497 20.5581H19.0711V23.7209C19.0711 24.1403 18.9037 24.5425 18.6057 24.8391C18.3076 25.1357 17.9034 25.3023 17.4819 25.3023C17.0604 25.3023 16.6561 25.1357 16.3581 24.8391C16.06 24.5425 15.8926 24.1403 15.8926 23.7209V20.5581H12.714C12.2925 20.5581 11.8883 20.3915 11.5902 20.0949C11.2922 19.7984 11.1247 19.3961 11.1247 18.9767C11.1247 18.5573 11.2922 18.1551 11.5902 17.8585C11.8883 17.5619 12.2925 17.3953 12.714 17.3953Z" fill="white"/>
<path d="M58.8037 18.9768C58.8088 19.5554 58.8545 20.1329 58.9404 20.7052C61.4775 21.1046 63.7976 22.3653 65.5068 24.2732C67.2159 26.1812 68.2089 28.6188 68.3172 31.1725C69.3596 31.4627 70.4357 31.6158 71.518 31.6279C74.2373 31.6242 76.8841 30.7546 79.0709 29.1463C81.2577 27.538 82.8698 25.2755 83.6713 22.6899C83.8281 22.1714 83.9502 21.6431 84.0368 21.1085C84.0623 20.963 84.0845 20.8159 84.1052 20.6689C84.185 20.1082 84.2275 19.543 84.2323 18.9768C84.2324 18.532 84.2086 18.0875 84.1608 17.6452C84.1608 17.6089 84.1481 17.5725 84.1433 17.5345C84.0956 17.1297 84.0336 16.7264 83.9478 16.3295C83.9478 16.3074 83.9351 16.2852 83.9303 16.2631C83.8405 15.8544 83.7297 15.4506 83.5982 15.0533C83.5982 15.0312 83.5823 15.009 83.5743 14.9869C83.4424 14.5947 83.293 14.2089 83.123 13.8325C83.1071 13.7977 83.0896 13.7661 83.0737 13.7313C82.9148 13.3723 82.7257 13.0181 82.527 12.6749L82.4396 12.5342C82.2457 12.2179 82.0391 11.9016 81.815 11.5853C81.7753 11.5284 81.7324 11.473 81.6895 11.4177C81.4685 11.1235 81.2365 10.8389 80.9886 10.5653C80.9393 10.5084 80.8885 10.453 80.8297 10.3977C80.5775 10.1267 80.3126 9.86318 80.035 9.60699C78.2141 7.95924 75.951 6.87386 73.5212 6.48303C71.0914 6.09219 68.5999 6.41276 66.35 7.4057C64.1 8.39864 62.1888 10.0211 60.849 12.0755C59.5092 14.1299 58.7986 16.5277 58.8037 18.9768ZM73.1073 23.7209C73.1073 24.1404 72.9399 24.5426 72.6418 24.8392C72.3438 25.1357 71.9395 25.3023 71.518 25.3023C71.0965 25.3023 70.6923 25.1357 70.3942 24.8392C70.0962 24.5426 69.9287 24.1404 69.9287 23.7209V22.1395C69.9287 21.7201 70.0962 21.3179 70.3942 21.0213C70.6923 20.7248 71.0965 20.5582 71.518 20.5582C71.9395 20.5582 72.3438 20.7248 72.6418 21.0213C72.9399 21.3179 73.1073 21.7201 73.1073 22.1395V23.7209ZM74.6966 17.3954H76.2859C76.7074 17.3954 77.1116 17.562 77.4097 17.8585C77.7077 18.1551 77.8752 18.5573 77.8752 18.9768C77.8752 19.3962 77.7077 19.7984 77.4097 20.095C77.1116 20.3915 76.7074 20.5582 76.2859 20.5582H74.6966C74.2751 20.5582 73.8708 20.3915 73.5728 20.095C73.2748 19.7984 73.1073 19.3962 73.1073 18.9768C73.1073 18.5573 73.2748 18.1551 73.5728 17.8585C73.8708 17.562 74.2751 17.3954 74.6966 17.3954ZM69.9287 14.2326C69.9287 13.8132 70.0962 13.4109 70.3942 13.1144C70.6923 12.8178 71.0965 12.6512 71.518 12.6512C71.9395 12.6512 72.3438 12.8178 72.6418 13.1144C72.9399 13.4109 73.1073 13.8132 73.1073 14.2326V15.814C73.1073 16.2334 72.9399 16.6356 72.6418 16.9322C72.3438 17.2288 71.9395 17.3954 71.518 17.3954C71.0965 17.3954 70.6923 17.2288 70.3942 16.9322C70.0962 16.6356 69.9287 16.2334 69.9287 15.814V14.2326ZM66.7502 17.3954H68.3395C68.761 17.3954 69.1652 17.562 69.4632 17.8585C69.7613 18.1551 69.9287 18.5573 69.9287 18.9768C69.9287 19.3962 69.7613 19.7984 69.4632 20.095C69.1652 20.3915 68.761 20.5582 68.3395 20.5582H66.7502C66.3287 20.5582 65.9244 20.3915 65.6264 20.095C65.3283 19.7984 65.1609 19.3962 65.1609 18.9768C65.1609 18.5573 65.3283 18.1551 65.6264 17.8585C65.9244 17.562 66.3287 17.3954 66.7502 17.3954Z" fill="white"/>
<path d="M39.7317 31.6279C39.7317 30.0641 39.2657 28.5353 38.3925 27.235C37.5194 25.9348 36.2783 24.9213 34.8263 24.3228C33.3742 23.7244 31.7765 23.5678 30.235 23.8729C28.6936 24.178 27.2777 24.931 26.1663 26.0369C25.055 27.1427 24.2982 28.5515 23.9916 30.0854C23.6849 31.6192 23.8423 33.209 24.4438 34.6538C25.0452 36.0986 26.0637 37.3335 27.3705 38.2023C28.6773 39.0712 30.2136 39.5349 31.7853 39.5349C33.892 39.5324 35.9118 38.6985 37.4015 37.2162C38.8912 35.7339 39.7292 33.7242 39.7317 31.6279ZM27.0174 31.6279C27.0174 30.6896 27.2971 29.7724 27.821 28.9922C28.3449 28.212 29.0895 27.6039 29.9607 27.2449C30.8319 26.8858 31.7906 26.7918 32.7155 26.9749C33.6403 27.158 34.4899 27.6098 35.1567 28.2733C35.8235 28.9368 36.2776 29.7821 36.4615 30.7024C36.6455 31.6227 36.5511 32.5766 36.1902 33.4434C35.8294 34.3103 35.2182 35.0513 34.4342 35.5726C33.6501 36.0939 32.7283 36.3721 31.7853 36.3721C30.5208 36.3721 29.3081 35.8723 28.4139 34.9826C27.5198 34.0929 27.0174 32.8862 27.0174 31.6279Z" fill="white"/>
<path d="M65.1604 45.3687V39.3594C64.1272 40.4158 62.8916 41.2555 61.5268 41.8288C60.162 42.4022 58.6955 42.6976 57.214 42.6976C55.7325 42.6976 54.266 42.4022 52.9012 41.8288C51.5364 41.2555 50.3008 40.4158 49.2676 39.3594V41.1163C49.2701 43.2126 50.1081 45.2223 51.5978 46.7046C53.0875 48.1869 55.1073 49.0208 57.214 49.0233C58.7414 49.1351 60.2722 48.8584 61.6624 48.219C63.0526 47.5796 64.2564 46.5988 65.1604 45.3687Z" fill="white"/>
</g>
<defs>
<clipPath id="clip0_26_300">
<rect width="89" height="68" fill="white"/>
</clipPath>
</defs>
</svg>
